solid OpenSCAD_Model
  facet normal -0.857493 0.514496 0
    outer loop
      vertex -27.5 0 0
      vertex -27.5 0 8
      vertex -15.5 20 38
    endloop
  endfacet
  facet normal 0 0 1
    outer loop
      vertex 14.5 18.5 39
      vertex -14.5 -25 39
      vertex 14.5 -25 39
    endloop
  endfacet
  facet normal -0 0 1
    outer loop
      vertex -14.5 18.5 39
      vertex -14.5 -25 39
      vertex 14.5 18.5 39
    endloop
  endfacet
  facet normal 0.857493 0.514496 -0
    outer loop
      vertex 27.5 0 0
      vertex 15.5 20 38
      vertex 27.5 0 8
    endloop
  endfacet
  facet normal -0.928477 0 0.371391
    outer loop
      vertex -27.5 0 8
      vertex -15.5 -25 38
      vertex -15.5 20 38
    endloop
  endfacet
  facet normal -0.707107 0 0.707107
    outer loop
      vertex -14.5 18.5 39
      vertex -15.5 -25 38
      vertex -14.5 -25 39
    endloop
  endfacet
  facet normal 0 0.5547 0.83205
    outer loop
      vertex -14.5 18.5 39
      vertex 15.5 20 38
      vertex -15.5 20 38
    endloop
  endfacet
  facet normal 0 -1 0
    outer loop
      vertex 15.5 -25 38
      vertex 27.5 -25 0
      vertex 27.5 -25 8
    endloop
  endfacet
  facet normal -0.928477 0 0.371391
    outer loop
      vertex -27.5 -25 8
      vertex -15.5 -25 38
      vertex -27.5 0 8
    endloop
  endfacet
  facet normal 0 -0 -1
    outer loop
      vertex -11.25 10 0
      vertex 27.5 -25 0
      vertex -27.5 0 0
    endloop
  endfacet
  facet normal 0 -1 0
    outer loop
      vertex -15.5 -25 38
      vertex 27.5 -25 0
      vertex -14.5 -25 39
    endloop
  endfacet
  facet normal 0 -1 0
    outer loop
      vertex 14.5 -25 39
      vertex 27.5 -25 0
      vertex 15.5 -25 38
    endloop
  endfacet
  facet normal -1 -0 0
    outer loop
      vertex -27.5 0 8
      vertex -27.5 -25 0
      vertex -27.5 -25 8
    endloop
  endfacet
  facet normal 0.707107 0 0.707107
    outer loop
      vertex 14.5 18.5 39
      vertex 15.5 -25 38
      vertex 15.5 20 38
    endloop
  endfacet
  facet normal 0.928477 0 0.371391
    outer loop
      vertex 27.5 0 8
      vertex 15.5 -25 38
      vertex 27.5 -25 8
    endloop
  endfacet
  facet normal 0 0.5547 0.83205
    outer loop
      vertex 14.5 18.5 39
      vertex 15.5 20 38
      vertex -14.5 18.5 39
    endloop
  endfacet
  facet normal -1 0 0
    outer loop
      vertex -27.5 0 0
      vertex -27.5 -25 0
      vertex -27.5 0 8
    endloop
  endfacet
  facet normal 0.731653 0.670682 -0.121942
    outer loop
      vertex 7.5 22 1
      vertex 15.5 20 38
      vertex 27.5 0 0
    endloop
  endfacet
  facet normal 0.0630312 0.102426 -0.992742
    outer loop
      vertex 27.5 0 0
      vertex 11.25 10 0
      vertex 7.5 22 1
    endloop
  endfacet
  facet normal -0.707107 0 0.707107
    outer loop
      vertex -15.5 20 38
      vertex -15.5 -25 38
      vertex -14.5 18.5 39
    endloop
  endfacet
  facet normal -0.0630312 0.102426 -0.992742
    outer loop
      vertex -7.5 22 1
      vertex -11.25 10 0
      vertex -27.5 0 0
    endloop
  endfacet
  facet normal 0.242536 0.970143 -0
    outer loop
      vertex 7.5 22 1
      vertex 7.5 22 9
      vertex 15.5 20 38
    endloop
  endfacet
  facet normal 1 -0 0
    outer loop
      vertex 27.5 -25 8
      vertex 27.5 -25 0
      vertex 27.5 0 8
    endloop
  endfacet
  facet normal -0 -0 -1
    outer loop
      vertex 11.25 10 0
      vertex 27.5 -25 0
      vertex -11.25 10 0
    endloop
  endfacet
  facet normal 0 -1 0
    outer loop
      vertex -27.5 -25 8
      vertex 27.5 -25 0
      vertex -15.5 -25 38
    endloop
  endfacet
  facet normal 0 0.0830455 -0.996546
    outer loop
      vertex 7.5 22 1
      vertex -11.25 10 0
      vertex -7.5 22 1
    endloop
  endfacet
  facet normal 0 0.0830455 -0.996546
    outer loop
      vertex 11.25 10 0
      vertex -11.25 10 0
      vertex 7.5 22 1
    endloop
  endfacet
  facet normal 0.928477 0 0.371391
    outer loop
      vertex 15.5 20 38
      vertex 15.5 -25 38
      vertex 27.5 0 8
    endloop
  endfacet
  facet normal -0.731653 0.670682 -0.121942
    outer loop
      vertex -15.5 20 38
      vertex -7.5 22 1
      vertex -27.5 0 0
    endloop
  endfacet
  facet normal 0 1 0
    outer loop
      vertex -7.5 22 1
      vertex 7.5 22 9
      vertex 7.5 22 1
    endloop
  endfacet
  facet normal 0 -1 0
    outer loop
      vertex -14.5 -25 39
      vertex 27.5 -25 0
      vertex 14.5 -25 39
    endloop
  endfacet
  facet normal 0 -1 0
    outer loop
      vertex -27.5 -25 0
      vertex 27.5 -25 0
      vertex -27.5 -25 8
    endloop
  endfacet
  facet normal 0.707107 -0 0.707107
    outer loop
      vertex 14.5 -25 39
      vertex 15.5 -25 38
      vertex 14.5 18.5 39
    endloop
  endfacet
  facet normal 1 0 0
    outer loop
      vertex 27.5 0 8
      vertex 27.5 -25 0
      vertex 27.5 0 0
    endloop
  endfacet
  facet normal -0.242536 0.970143 0
    outer loop
      vertex -15.5 20 38
      vertex -7.5 22 9
      vertex -7.5 22 1
    endloop
  endfacet
  facet normal -0 1 0
    outer loop
      vertex -7.5 22 9
      vertex 7.5 22 9
      vertex -7.5 22 1
    endloop
  endfacet
  facet normal 0 0 -1
    outer loop
      vertex -27.5 0 0
      vertex 27.5 -25 0
      vertex -27.5 -25 0
    endloop
  endfacet
  facet normal -0 -0 -1
    outer loop
      vertex 27.5 0 0
      vertex 27.5 -25 0
      vertex 11.25 10 0
    endloop
  endfacet
  facet normal 0 0.99763 0.0688021
    outer loop
      vertex -15.5 20 38
      vertex 7.5 22 9
      vertex -7.5 22 9
    endloop
  endfacet
  facet normal 0 0.99763 0.0688021
    outer loop
      vertex 15.5 20 38
      vertex 7.5 22 9
      vertex -15.5 20 38
    endloop
  endfacet
endsolid OpenSCAD_Model
